<svg width="250" height="171" viewBox="0 0 250 171" fill="none" xmlns="http://www.w3.org/2000/svg">
<path d="M192.607 84.9525C180.575 84.9525 179.586 84.9851 178.651 85.4096C177.474 85.9437 176.44 87.0814 176.087 88.2328C175.95 88.6812 175.767 89.9999 175.682 91.1634C174.839 102.712 171.901 113.968 167.049 124.228C164.21 130.23 160.226 136.575 155.852 142.06C153.358 145.188 147.158 151.647 144.001 154.406L142.465 155.749L145.443 159.358C149.001 163.668 150.042 164.76 152.011 166.248C154.573 168.183 157.65 169.54 160.978 170.2C163.764 170.753 168.908 170.515 171.635 169.708C177.055 168.105 180.149 165.766 184.506 159.98C198.02 142.032 206.467 120.594 208.779 98.3815C209.402 92.3903 209.523 89.3761 209.182 88.3416C208.763 87.0731 207.764 85.9543 206.564 85.4096C205.629 84.9852 204.64 84.9525 192.607 84.9525Z" fill="white"/>
<path d="M233.201 84.893C226.665 84.893 220.129 85.0378 219.437 85.3268C217.443 86.1591 216.407 87.8499 216.393 90.2924C216.388 91.1137 216.218 93.6633 216.015 95.9579C214.721 110.542 211.619 123.158 206.12 136.212C205.168 138.47 204.336 140.495 204.271 140.711C204.179 141.014 205.259 141.621 208.964 143.35C214.011 145.705 215.304 146.202 217.913 146.793C220.466 147.372 225.417 147.137 228.221 146.305C232.289 145.097 236.262 142.624 238.861 139.683C241.691 136.481 243.016 133.572 244.783 126.687C247.692 115.355 249.432 103.812 249.915 92.653C250.07 89.0678 250.046 88.7214 249.573 87.8004C248.94 86.5667 248.158 85.8247 246.965 85.3268C246.273 85.0378 239.737 84.893 233.201 84.893Z" fill="white"/>
<path d="M191.152 58.611C183.734 58.5707 177.297 58.6043 176.849 58.6855C176.401 58.7668 175.639 59.1802 175.155 59.6045C173.539 61.0225 173.129 62.5128 173.674 64.9902C174.326 67.9579 174.815 70.8983 175.283 74.6798C175.85 79.2584 176.281 80.17 178.411 81.2923C179.064 81.6365 180.815 81.6868 192.341 81.696C205.102 81.7053 205.558 81.6894 206.571 81.1993C207.169 80.9097 207.923 80.2511 208.331 79.6618C209.019 78.666 209.043 78.5324 209.019 75.7506C208.983 71.4371 207.74 62.5658 206.962 61.0619C206.718 60.5901 206.095 59.8616 205.579 59.4437L204.639 58.6841L191.152 58.611Z" fill="black"/>
<path d="M231.748 58.5597C216.825 58.5597 217.336 58.5049 215.895 60.2526C215.003 61.3333 214.61 63.0185 214.894 64.5332C215.18 66.0574 215.853 71.951 216.132 75.3772C216.442 79.17 217.181 80.5363 219.415 81.443C219.768 81.5864 225.313 81.6611 233.366 81.6312L246.731 81.5813L247.788 80.8347C249.393 79.7015 249.863 78.5805 249.811 76.0026C249.755 73.2236 249.063 65.6993 248.633 63.1894C248.256 60.9951 247.524 59.8255 246.024 59.0216C245.215 58.5882 244.338 58.5597 231.748 58.5597Z" fill="black"/>
<path d="M148.399 58.5597C136.014 58.5597 134.34 58.6051 133.633 58.9627C132.492 59.5401 131.979 60.0457 131.419 61.1414C130.704 62.5417 130.924 64.2916 132.284 68.0441C132.91 69.7699 133.716 72.5696 134.076 74.2659C134.435 75.9623 134.838 77.7657 134.972 78.2729C135.277 79.4309 136.24 80.5883 137.411 81.2069C138.269 81.6596 138.996 81.6849 151.523 81.6955L164.732 81.7061L165.84 81.1464C166.489 80.8186 167.259 80.1382 167.699 79.5062C168.375 78.5334 168.446 78.2498 168.415 76.644C168.373 74.4089 167.553 69.3782 166.543 65.1555C165.494 60.7662 165.048 59.9276 163.291 59.0315C162.417 58.5856 161.614 58.5597 148.399 58.5597Z" fill="black"/>
<path d="M84.6973 0.5L81.2471 0.673109C70.0121 1.23781 60.3149 3.45922 50.5266 7.71059C26.7429 18.0406 8.55517 39.5815 2.44503 64.6571C-1.3119 80.0752 -0.726843 96.3845 4.11429 111.199C14.41 142.705 42.1355 165.264 75.0576 168.923C76.9752 169.136 79.3291 169.346 80.2879 169.388C84.0954 169.556 85.6665 169.543 89.2532 169.312C95.9158 168.884 101.763 167.894 107.728 166.184C139.349 157.123 162.961 130.338 167.936 97.8834C168.507 94.1604 168.868 89.7902 168.685 88.8164C168.436 87.4879 167.217 85.9698 165.949 85.4095C164.901 84.9462 164.275 84.928 151.584 84.9956L138.315 85.066L137.379 85.6476C135.948 86.5365 135.29 87.9049 134.963 90.6659C134.272 96.5028 132.718 101.864 130.213 107.056C122.787 122.446 108.116 133.117 91.2853 135.369C87.9935 135.81 81.4446 135.862 78.2954 135.472C57.499 132.898 40.4199 117.848 35.2149 97.5097C34.0165 92.8272 33.718 90.2272 33.7421 84.6924C33.7784 76.3741 35.3259 69.7841 38.9622 62.4639C41.4253 57.5053 44.3509 53.4482 48.4807 49.2641C53.915 43.7584 60.1637 39.8077 67.8088 37.0435C72.797 35.2398 74.9866 34.0082 77.7402 31.458C80.4808 28.9197 82.8969 24.7203 83.927 20.703C84.4134 18.8061 84.4735 17.7806 84.5802 9.55657L84.6973 0.5Z" fill="white"/>
</svg>
